<svg width="1230" height="3040" viewBox="0 0 1230 3040" class="keymap" xmlns="http://www.w3.org/2000/svg" xmlns:xlink="http://www.w3.org/1999/xlink">
<style>/* inherit to force styles through use tags */
svg path {
    fill: inherit;
}

/* font and background color specifications */
svg.keymap {
    font-family: SFMono-Regular,Consolas,Liberation Mono,Menlo,monospace;
    font-size: 14px;
    font-kerning: normal;
    text-rendering: optimizeLegibility;
    fill: #24292e;
}

/* default key styling */
rect.key {
    fill: #f6f8fa;
}

rect.key, rect.combo {
    stroke: #c9cccf;
    stroke-width: 1;
}

/* default key side styling, only used is draw_key_sides is set */
rect.side {
    filter: brightness(90%);
}

/* color accent for combo boxes */
rect.combo, rect.combo-separate {
    fill: #cdf;
}

/* color accent for held keys */
rect.held, rect.combo.held {
    fill: #fdd;
}

/* color accent for ghost (optional) keys */
rect.ghost, rect.combo.ghost {
    stroke-dasharray: 4, 4;
    stroke-width: 2;
}

text {
    text-anchor: middle;
    dominant-baseline: middle;
}

/* styling for layer labels */
text.label {
    font-weight: bold;
    text-anchor: start;
    stroke: white;
    stroke-width: 4;
    paint-order: stroke;
}

/* styling for optional footer */
text.footer {
    text-anchor: end;
    dominant-baseline: auto;
    stroke: white;
    stroke-width: 4;
    paint-order: stroke;
}

/* styling for combo tap, and key hold/shifted label text */
text.combo, text.hold, text.shifted {
    font-size: 11px;
}

text.hold {
    text-anchor: middle;
    dominant-baseline: auto;
}

text.shifted {
    text-anchor: middle;
    dominant-baseline: hanging;
}

text.layer-activator {
    text-decoration: underline;
}

/* styling for hold/shifted label text in combo box */
text.combo.hold, text.combo.shifted {
    font-size: 8px;
}

/* lighter symbol for transparent keys */
text.trans {
    fill: #7b7e81;
}

/* styling for combo dendrons */
path.combo {
    stroke-width: 1;
    stroke: gray;
    fill: none;
}

/* Start Tabler Icons Cleanup */
/* cannot use height/width with glyphs */
.icon-tabler > path {
    fill: inherit;
    stroke: inherit;
    stroke-width: 2;
}
/* hide tabler's default box */
.icon-tabler > path[stroke="none"][fill="none"] {
    visibility: hidden;
}
/* End Tabler Icons Cleanup */

svg.keymap { fill: #d1d6db; }
rect.key { fill: #3f4750; }
rect.key, rect.combo { stroke: #60666c; }
rect.combo, rect.combo-separate { fill: #1f3d7a; }
rect.held, rect.combo.held { fill: #854747; }
text.label, text.footer { stroke: black; }
text.trans { fill: #7e8184; }
path.combo { stroke: #7f7f7f; }
</style>
<g transform="translate(30, 0)" class="layer-LY_BAS">
<text x="0" y="28" class="label" id="LY_BAS">LY_BAS:</text>
<g transform="translate(0, 56)">
<g transform="translate(45, 79)" class="key keypos-0">
<rect rx="6" ry="6" x="-43" y="-43" width="86" height="86" class="key"/>
<text x="0" y="0" class="key tap">Q</text>
</g>
<g transform="translate(135, 56)" class="key keypos-1">
<rect rx="6" ry="6" x="-43" y="-43" width="86" height="86" class="key"/>
<text x="0" y="0" class="key tap">W</text>
</g>
<g transform="translate(225, 45)" class="key keypos-2">
<rect rx="6" ry="6" x="-43" y="-43" width="86" height="86" class="key"/>
<text x="0" y="0" class="key tap">E</text>
</g>
<g transform="translate(315, 56)" class="key keypos-3">
<rect rx="6" ry="6" x="-43" y="-43" width="86" height="86" class="key"/>
<text x="0" y="0" class="key tap">R</text>
</g>
<g transform="translate(405, 68)" class="key keypos-4">
<rect rx="6" ry="6" x="-43" y="-43" width="86" height="86" class="key"/>
<text x="0" y="0" class="key tap">T</text>
</g>
<g transform="translate(765, 68)" class="key keypos-5">
<rect rx="6" ry="6" x="-43" y="-43" width="86" height="86" class="key"/>
<text x="0" y="0" class="key tap">Y</text>
</g>
<g transform="translate(855, 56)" class="key keypos-6">
<rect rx="6" ry="6" x="-43" y="-43" width="86" height="86" class="key"/>
<text x="0" y="0" class="key tap">U</text>
</g>
<g transform="translate(945, 45)" class="key keypos-7">
<rect rx="6" ry="6" x="-43" y="-43" width="86" height="86" class="key"/>
<text x="0" y="0" class="key tap">I</text>
</g>
<g transform="translate(1035, 56)" class="key keypos-8">
<rect rx="6" ry="6" x="-43" y="-43" width="86" height="86" class="key"/>
<text x="0" y="0" class="key tap">O</text>
</g>
<g transform="translate(1125, 79)" class="key keypos-9">
<rect rx="6" ry="6" x="-43" y="-43" width="86" height="86" class="key"/>
<text x="0" y="0" class="key tap">P</text>
</g>
<g transform="translate(45, 169)" class="key keypos-10">
<rect rx="6" ry="6" x="-43" y="-43" width="86" height="86" class="key"/>
<text x="0" y="0" class="key tap">A</text>
</g>
<g transform="translate(135, 146)" class="key keypos-11">
<rect rx="6" ry="6" x="-43" y="-43" width="86" height="86" class="key"/>
<text x="0" y="0" class="key tap">S</text>
</g>
<g transform="translate(225, 135)" class="key keypos-12">
<rect rx="6" ry="6" x="-43" y="-43" width="86" height="86" class="key"/>
<text x="0" y="0" class="key tap">D</text>
<a href="#LY_SYM">
<text x="0" y="41" class="key hold layer-activator">LY_SYM</text>
</a></g>
<g transform="translate(315, 146)" class="key keypos-13">
<rect rx="6" ry="6" x="-43" y="-43" width="86" height="86" class="key"/>
<text x="0" y="0" class="key tap">F</text>
</g>
<g transform="translate(405, 158)" class="key keypos-14">
<rect rx="6" ry="6" x="-43" y="-43" width="86" height="86" class="key"/>
<text x="0" y="0" class="key tap">G</text>
</g>
<g transform="translate(765, 158)" class="key keypos-15">
<rect rx="6" ry="6" x="-43" y="-43" width="86" height="86" class="key"/>
<text x="0" y="0" class="key tap">H</text>
</g>
<g transform="translate(855, 146)" class="key keypos-16">
<rect rx="6" ry="6" x="-43" y="-43" width="86" height="86" class="key"/>
<text x="0" y="0" class="key tap">J</text>
</g>
<g transform="translate(945, 135)" class="key keypos-17">
<rect rx="6" ry="6" x="-43" y="-43" width="86" height="86" class="key"/>
<text x="0" y="0" class="key tap">K</text>
<a href="#LY_SYM">
<text x="0" y="41" class="key hold layer-activator">LY_SYM</text>
</a></g>
<g transform="translate(1035, 146)" class="key keypos-18">
<rect rx="6" ry="6" x="-43" y="-43" width="86" height="86" class="key"/>
<text x="0" y="0" class="key tap">L</text>
</g>
<g transform="translate(1125, 169)" class="key keypos-19">
<rect rx="6" ry="6" x="-43" y="-43" width="86" height="86" class="key"/>
<text x="0" y="0" class="key tap">;</text>
</g>
<g transform="translate(45, 259)" class="key keypos-20">
<rect rx="6" ry="6" x="-43" y="-43" width="86" height="86" class="key"/>
<text x="0" y="0" class="key tap">Z</text>
<text x="0" y="41" class="key hold">LGUI</text>
</g>
<g transform="translate(135, 236)" class="key keypos-21">
<rect rx="6" ry="6" x="-43" y="-43" width="86" height="86" class="key"/>
<text x="0" y="0" class="key tap">X</text>
<text x="0" y="41" class="key hold">LALT</text>
</g>
<g transform="translate(225, 225)" class="key keypos-22">
<rect rx="6" ry="6" x="-43" y="-43" width="86" height="86" class="key"/>
<text x="0" y="0" class="key tap">C</text>
<text x="0" y="41" class="key hold">LCTL</text>
</g>
<g transform="translate(315, 236)" class="key keypos-23">
<rect rx="6" ry="6" x="-43" y="-43" width="86" height="86" class="key"/>
<text x="0" y="0" class="key tap">V</text>
<text x="0" y="41" class="key hold">LSFT</text>
</g>
<g transform="translate(405, 248)" class="key keypos-24">
<rect rx="6" ry="6" x="-43" y="-43" width="86" height="86" class="key"/>
<text x="0" y="0" class="key tap">B</text>
</g>
<g transform="translate(765, 248)" class="key keypos-25">
<rect rx="6" ry="6" x="-43" y="-43" width="86" height="86" class="key"/>
<text x="0" y="0" class="key tap">N</text>
</g>
<g transform="translate(855, 236)" class="key keypos-26">
<rect rx="6" ry="6" x="-43" y="-43" width="86" height="86" class="key"/>
<text x="0" y="0" class="key tap">M</text>
<text x="0" y="41" class="key hold">RSFT</text>
</g>
<g transform="translate(945, 225)" class="key keypos-27">
<rect rx="6" ry="6" x="-43" y="-43" width="86" height="86" class="key"/>
<text x="0" y="0" class="key tap">,</text>
<text x="0" y="41" class="key hold">RCTL</text>
</g>
<g transform="translate(1035, 236)" class="key keypos-28">
<rect rx="6" ry="6" x="-43" y="-43" width="86" height="86" class="key"/>
<text x="0" y="0" class="key tap">.</text>
<text x="0" y="41" class="key hold">LALT</text>
</g>
<g transform="translate(1125, 259)" class="key keypos-29">
<rect rx="6" ry="6" x="-43" y="-43" width="86" height="86" class="key"/>
<text x="0" y="0" class="key tap">/</text>
<text x="0" y="41" class="key hold">RGUI</text>
</g>
<g transform="translate(270, 329)" class="key keypos-30">
<rect rx="6" ry="6" x="-43" y="-43" width="86" height="86" class="key"/>
<a href="#LY_FUN">
<text x="0" y="41" class="key hold layer-activator">LY_FUN</text>
</a></g>
<g transform="translate(369, 342) rotate(15.0)" class="key keypos-31">
<rect rx="6" ry="6" x="-43" y="-43" width="86" height="86" class="key"/>
<text x="0" y="0" class="key tap">ESC</text>
<a href="#LY_NUM">
<text x="0" y="41" class="key hold layer-activator">LY_NUM</text>
</a></g>
<g transform="translate(474, 360) rotate(30.0)" class="key keypos-32">
<rect rx="6" ry="6" x="-43" y="-66" width="86" height="131" class="key"/>
<text x="0" y="0" class="key tap">SPC</text>
<a href="#LY_EXT">
<text x="0" y="64" class="key hold layer-activator">LY_EXT</text>
</a></g>
<g transform="translate(696, 360) rotate(-30.0)" class="key keypos-33">
<rect rx="6" ry="6" x="-43" y="-66" width="86" height="131" class="key"/>
<text x="0" y="0" class="key tap">ENT</text>
<text x="0" y="64" class="key hold">HYPR</text>
</g>
<g transform="translate(801, 342) rotate(-15.0)" class="key keypos-34">
<rect rx="6" ry="6" x="-43" y="-43" width="86" height="86" class="key"/>
<text x="0" y="0" class="key tap">TAB</text>
<text x="0" y="41" class="key hold">MEH</text>
</g>
<g transform="translate(900, 329)" class="key keypos-35">
<rect rx="6" ry="6" x="-43" y="-43" width="86" height="86" class="key"/>
<a href="#LY_MED">
<text x="0" y="41" class="key hold layer-activator">LY_MED</text>
</a></g>
<g class="combo combopos-0">
<rect rx="6" ry="6" x="976" y="38" width="28" height="26" class="combo"/>
<text x="990" y="51" class="combo tap">BSPC</text>
</g>
<g class="combo combopos-1">
<rect rx="6" ry="6" x="886" y="128" width="28" height="26" class="combo"/>
<text x="900" y="141" class="combo tap">[</text>
</g>
<g class="combo combopos-2">
<rect rx="6" ry="6" x="976" y="128" width="28" height="26" class="combo"/>
<text x="990" y="141" class="combo tap">]</text>
</g>
</g>
</g>
<g transform="translate(30, 497)" class="layer-LY_EXT">
<text x="0" y="28" class="label" id="LY_EXT">LY_EXT:</text>
<g transform="translate(0, 56)">
<g transform="translate(45, 79)" class="key keypos-0">
<rect rx="6" ry="6" x="-43" y="-43" width="86" height="86" class="key"/>
<text x="0" y="0" class="key tap">G(Q)</text>
</g>
<g transform="translate(135, 56)" class="key keypos-1">
<rect rx="6" ry="6" x="-43" y="-43" width="86" height="86" class="key"/>
<text x="0" y="0" class="key tap">G(W)</text>
</g>
<g transform="translate(225, 45)" class="key keypos-2">
<rect rx="6" ry="6" x="-43" y="-43" width="86" height="86" class="key"/>
<text x="0" y="0" class="key tap">G(E)</text>
</g>
<g transform="translate(315, 56)" class="key keypos-3">
<rect rx="6" ry="6" x="-43" y="-43" width="86" height="86" class="key"/>
<text x="0" y="0" class="key tap">G(R)</text>
</g>
<g transform="translate(405, 68)" class="key keypos-4">
<rect rx="6" ry="6" x="-43" y="-43" width="86" height="86" class="key"/>
<text x="0" y="0" class="key tap">G(T)</text>
</g>
<g transform="translate(765, 68)" class="key keypos-5">
<rect rx="6" ry="6" x="-43" y="-43" width="86" height="86" class="key"/>
<text x="0" y="0" class="key tap">G(C(C))</text>
</g>
<g transform="translate(855, 56)" class="key keypos-6">
<rect rx="6" ry="6" x="-43" y="-43" width="86" height="86" class="key"/>
<text x="0" y="0" class="key tap">G(S(C))</text>
</g>
<g transform="translate(945, 45)" class="key keypos-7">
<rect rx="6" ry="6" x="-43" y="-43" width="86" height="86" class="key"/>
<text x="0" y="0" class="key tap">G(`)</text>
</g>
<g transform="translate(1035, 56)" class="key keypos-8">
<rect rx="6" ry="6" x="-43" y="-43" width="86" height="86" class="key"/>
<text x="0" y="0" class="key tap">G(TAB)</text>
</g>
<g transform="translate(1125, 79)" class="key keypos-9">
<rect rx="6" ry="6" x="-43" y="-43" width="86" height="86" class="key"/>
</g>
<g transform="translate(45, 169)" class="key keypos-10">
<rect rx="6" ry="6" x="-43" y="-43" width="86" height="86" class="key"/>
<text x="0" y="0" class="key tap">G(A)</text>
<text x="0" y="41" class="key hold">GUI</text>
</g>
<g transform="translate(135, 146)" class="key keypos-11">
<rect rx="6" ry="6" x="-43" y="-43" width="86" height="86" class="key"/>
<text x="0" y="0" class="key tap">G(S)</text>
<text x="0" y="41" class="key hold">ALT</text>
</g>
<g transform="translate(225, 135)" class="key keypos-12">
<rect rx="6" ry="6" x="-43" y="-43" width="86" height="86" class="key"/>
<text x="0" y="0" class="key tap">G(D)</text>
<text x="0" y="41" class="key hold">CTL</text>
</g>
<g transform="translate(315, 146)" class="key keypos-13">
<rect rx="6" ry="6" x="-43" y="-43" width="86" height="86" class="key"/>
<text x="0" y="0" class="key tap">G(F)</text>
<text x="0" y="41" class="key hold">SFT</text>
</g>
<g transform="translate(405, 158)" class="key keypos-14">
<rect rx="6" ry="6" x="-43" y="-43" width="86" height="86" class="key"/>
<text x="0" y="0" class="key tap">G(G)</text>
</g>
<g transform="translate(765, 158)" class="key keypos-15">
<rect rx="6" ry="6" x="-43" y="-43" width="86" height="86" class="key"/>
<text x="0" y="0" class="key tap">LEFT</text>
</g>
<g transform="translate(855, 146)" class="key keypos-16">
<rect rx="6" ry="6" x="-43" y="-43" width="86" height="86" class="key"/>
<text x="0" y="0" class="key tap">DOWN</text>
</g>
<g transform="translate(945, 135)" class="key keypos-17">
<rect rx="6" ry="6" x="-43" y="-43" width="86" height="86" class="key"/>
<text x="0" y="0" class="key tap">UP</text>
</g>
<g transform="translate(1035, 146)" class="key keypos-18">
<rect rx="6" ry="6" x="-43" y="-43" width="86" height="86" class="key"/>
<text x="0" y="0" class="key tap">RIGHT</text>
</g>
<g transform="translate(1125, 169)" class="key keypos-19">
<rect rx="6" ry="6" x="-43" y="-43" width="86" height="86" class="key"/>
<text x="0" y="0" class="key tap">:</text>
</g>
<g transform="translate(45, 259)" class="key keypos-20">
<rect rx="6" ry="6" x="-43" y="-43" width="86" height="86" class="key"/>
<text x="0" y="0" class="key tap">G(Z)</text>
</g>
<g transform="translate(135, 236)" class="key keypos-21">
<rect rx="6" ry="6" x="-43" y="-43" width="86" height="86" class="key"/>
<text x="0" y="0" class="key tap">G(X)</text>
</g>
<g transform="translate(225, 225)" class="key keypos-22">
<rect rx="6" ry="6" x="-43" y="-43" width="86" height="86" class="key"/>
<text x="0" y="0" class="key tap">G(C)</text>
</g>
<g transform="translate(315, 236)" class="key keypos-23">
<rect rx="6" ry="6" x="-43" y="-43" width="86" height="86" class="key"/>
<text x="0" y="0" class="key tap">G(V)</text>
</g>
<g transform="translate(405, 248)" class="key keypos-24">
<rect rx="6" ry="6" x="-43" y="-43" width="86" height="86" class="key"/>
<text x="0" y="0" class="key tap">G(B)</text>
</g>
<g transform="translate(765, 248)" class="key keypos-25">
<rect rx="6" ry="6" x="-43" y="-43" width="86" height="86" class="key"/>
</g>
<g transform="translate(855, 236)" class="key keypos-26">
<rect rx="6" ry="6" x="-43" y="-43" width="86" height="86" class="key"/>
<text x="0" y="0" class="key tap">CW_TOGG</text>
</g>
<g transform="translate(945, 225)" class="key keypos-27">
<rect rx="6" ry="6" x="-43" y="-43" width="86" height="86" class="key"/>
<text x="0" y="0" class="key tap">G(LBRC)</text>
</g>
<g transform="translate(1035, 236)" class="key keypos-28">
<rect rx="6" ry="6" x="-43" y="-43" width="86" height="86" class="key"/>
<text x="0" y="0" class="key tap">G(RBRC)</text>
</g>
<g transform="translate(1125, 259)" class="key keypos-29">
<rect rx="6" ry="6" x="-43" y="-43" width="86" height="86" class="key"/>
<text x="0" y="0" class="key tap">AG(I)</text>
</g>
<g transform="translate(270, 329)" class="key keypos-30">
<rect rx="6" ry="6" x="-43" y="-43" width="86" height="86" class="key"/>
</g>
<g transform="translate(369, 342) rotate(15.0)" class="key keypos-31">
<rect rx="6" ry="6" x="-43" y="-43" width="86" height="86" class="key"/>
</g>
<g transform="translate(474, 360) rotate(30.0)" class="key keypos-32">
<rect rx="6" ry="6" x="-43" y="-66" width="86" height="131" class="key"/>
</g>
<g transform="translate(696, 360) rotate(-30.0)" class="key keypos-33">
<rect rx="6" ry="6" x="-43" y="-66" width="86" height="131" class="key"/>
</g>
<g transform="translate(801, 342) rotate(-15.0)" class="key keypos-34">
<rect rx="6" ry="6" x="-43" y="-43" width="86" height="86" class="key"/>
</g>
<g transform="translate(900, 329)" class="key keypos-35">
<rect rx="6" ry="6" x="-43" y="-43" width="86" height="86" class="key"/>
</g>
</g>
</g>
<g transform="translate(30, 995)" class="layer-LY_SYM">
<text x="0" y="28" class="label" id="LY_SYM">LY_SYM:</text>
<g transform="translate(0, 56)">
<g transform="translate(45, 79)" class="key keypos-0">
<rect rx="6" ry="6" x="-43" y="-43" width="86" height="86" class="key"/>
<text x="0" y="0" class="key tap">^</text>
</g>
<g transform="translate(135, 56)" class="key keypos-1">
<rect rx="6" ry="6" x="-43" y="-43" width="86" height="86" class="key"/>
<text x="0" y="0" class="key tap">+</text>
</g>
<g transform="translate(225, 45)" class="key keypos-2">
<rect rx="6" ry="6" x="-43" y="-43" width="86" height="86" class="key"/>
<text x="0" y="0" class="key tap">#</text>
</g>
<g transform="translate(315, 56)" class="key keypos-3">
<rect rx="6" ry="6" x="-43" y="-43" width="86" height="86" class="key"/>
<text x="0" y="0" class="key tap">%</text>
</g>
<g transform="translate(405, 68)" class="key keypos-4">
<rect rx="6" ry="6" x="-43" y="-43" width="86" height="86" class="key"/>
<text x="0" y="0" class="key tap">$</text>
</g>
<g transform="translate(765, 68)" class="key keypos-5">
<rect rx="6" ry="6" x="-43" y="-43" width="86" height="86" class="key"/>
<text x="0" y="0" class="key tap">&lt;</text>
</g>
<g transform="translate(855, 56)" class="key keypos-6">
<rect rx="6" ry="6" x="-43" y="-43" width="86" height="86" class="key"/>
<text x="0" y="0" class="key tap">{</text>
</g>
<g transform="translate(945, 45)" class="key keypos-7">
<rect rx="6" ry="6" x="-43" y="-43" width="86" height="86" class="key"/>
<text x="0" y="0" class="key tap">&quot;</text>
</g>
<g transform="translate(1035, 56)" class="key keypos-8">
<rect rx="6" ry="6" x="-43" y="-43" width="86" height="86" class="key"/>
<text x="0" y="0" class="key tap">}</text>
</g>
<g transform="translate(1125, 79)" class="key keypos-9">
<rect rx="6" ry="6" x="-43" y="-43" width="86" height="86" class="key"/>
<text x="0" y="0" class="key tap">&gt;</text>
</g>
<g transform="translate(45, 169)" class="key keypos-10">
<rect rx="6" ry="6" x="-43" y="-43" width="86" height="86" class="key"/>
<text x="0" y="0" class="key tap">!</text>
</g>
<g transform="translate(135, 146)" class="key keypos-11">
<rect rx="6" ry="6" x="-43" y="-43" width="86" height="86" class="key"/>
<text x="0" y="0" class="key tap">-</text>
</g>
<g transform="translate(225, 135)" class="key keypos-12">
<rect rx="6" ry="6" x="-43" y="-43" width="86" height="86" class="key"/>
<text x="0" y="0" class="key tap">&amp;</text>
</g>
<g transform="translate(315, 146)" class="key keypos-13">
<rect rx="6" ry="6" x="-43" y="-43" width="86" height="86" class="key"/>
<text x="0" y="0" class="key tap">?</text>
</g>
<g transform="translate(405, 158)" class="key keypos-14">
<rect rx="6" ry="6" x="-43" y="-43" width="86" height="86" class="key"/>
<text x="0" y="0" class="key tap">|</text>
</g>
<g transform="translate(765, 158)" class="key keypos-15">
<rect rx="6" ry="6" x="-43" y="-43" width="86" height="86" class="key"/>
<text x="0" y="0" class="key tap">=</text>
</g>
<g transform="translate(855, 146)" class="key keypos-16">
<rect rx="6" ry="6" x="-43" y="-43" width="86" height="86" class="key"/>
<text x="0" y="0" class="key tap">[</text>
</g>
<g transform="translate(945, 135)" class="key keypos-17">
<rect rx="6" ry="6" x="-43" y="-43" width="86" height="86" class="key"/>
<text x="0" y="0" class="key tap">&#x27;</text>
</g>
<g transform="translate(1035, 146)" class="key keypos-18">
<rect rx="6" ry="6" x="-43" y="-43" width="86" height="86" class="key"/>
<text x="0" y="0" class="key tap">]</text>
</g>
<g transform="translate(1125, 169)" class="key keypos-19">
<rect rx="6" ry="6" x="-43" y="-43" width="86" height="86" class="key"/>
<text x="0" y="0" class="key tap">:</text>
</g>
<g transform="translate(45, 259)" class="key keypos-20">
<rect rx="6" ry="6" x="-43" y="-43" width="86" height="86" class="key"/>
</g>
<g transform="translate(135, 236)" class="key keypos-21">
<rect rx="6" ry="6" x="-43" y="-43" width="86" height="86" class="key"/>
<text x="0" y="0" class="key tap">_</text>
</g>
<g transform="translate(225, 225)" class="key keypos-22">
<rect rx="6" ry="6" x="-43" y="-43" width="86" height="86" class="key"/>
<text x="0" y="0" class="key tap">*</text>
</g>
<g transform="translate(315, 236)" class="key keypos-23">
<rect rx="6" ry="6" x="-43" y="-43" width="86" height="86" class="key"/>
<text x="0" y="0" class="key tap">@</text>
</g>
<g transform="translate(405, 248)" class="key keypos-24">
<rect rx="6" ry="6" x="-43" y="-43" width="86" height="86" class="key"/>
<text x="0" y="0" class="key tap">~/</text>
</g>
<g transform="translate(765, 248)" class="key keypos-25">
<rect rx="6" ry="6" x="-43" y="-43" width="86" height="86" class="key"/>
<text x="0" y="0" class="key tap">\</text>
</g>
<g transform="translate(855, 236)" class="key keypos-26">
<rect rx="6" ry="6" x="-43" y="-43" width="86" height="86" class="key"/>
<text x="0" y="0" class="key tap">(</text>
</g>
<g transform="translate(945, 225)" class="key keypos-27">
<rect rx="6" ry="6" x="-43" y="-43" width="86" height="86" class="key"/>
<text x="0" y="0" class="key tap">`</text>
</g>
<g transform="translate(1035, 236)" class="key keypos-28">
<rect rx="6" ry="6" x="-43" y="-43" width="86" height="86" class="key"/>
<text x="0" y="0" class="key tap">)</text>
</g>
<g transform="translate(1125, 259)" class="key keypos-29">
<rect rx="6" ry="6" x="-43" y="-43" width="86" height="86" class="key"/>
<text x="0" y="0" class="key tap">/</text>
</g>
<g transform="translate(270, 329)" class="key keypos-30">
<rect rx="6" ry="6" x="-43" y="-43" width="86" height="86" class="key"/>
<text x="0" y="41" class="key hold">LALT</text>
</g>
<g transform="translate(369, 342) rotate(15.0)" class="key keypos-31">
<rect rx="6" ry="6" x="-43" y="-43" width="86" height="86" class="key"/>
<text x="0" y="41" class="key hold">LCTL</text>
</g>
<g transform="translate(474, 360) rotate(30.0)" class="key keypos-32">
<rect rx="6" ry="6" x="-43" y="-66" width="86" height="131" class="key"/>
<text x="0" y="64" class="key hold">LGUI</text>
</g>
<g transform="translate(696, 360) rotate(-30.0)" class="key keypos-33">
<rect rx="6" ry="6" x="-43" y="-66" width="86" height="131" class="key"/>
</g>
<g transform="translate(801, 342) rotate(-15.0)" class="key keypos-34">
<rect rx="6" ry="6" x="-43" y="-43" width="86" height="86" class="key"/>
<text x="0" y="0" class="key tap">=&gt;</text>
</g>
<g transform="translate(900, 329)" class="key keypos-35">
<rect rx="6" ry="6" x="-43" y="-43" width="86" height="86" class="key"/>
</g>
</g>
</g>
<g transform="translate(30, 1492)" class="layer-LY_NUM">
<text x="0" y="28" class="label" id="LY_NUM">LY_NUM:</text>
<g transform="translate(0, 56)">
<g transform="translate(45, 79)" class="key keypos-0">
<rect rx="6" ry="6" x="-43" y="-43" width="86" height="86" class="key"/>
</g>
<g transform="translate(135, 56)" class="key keypos-1">
<rect rx="6" ry="6" x="-43" y="-43" width="86" height="86" class="key"/>
</g>
<g transform="translate(225, 45)" class="key keypos-2">
<rect rx="6" ry="6" x="-43" y="-43" width="86" height="86" class="key"/>
</g>
<g transform="translate(315, 56)" class="key keypos-3">
<rect rx="6" ry="6" x="-43" y="-43" width="86" height="86" class="key"/>
</g>
<g transform="translate(405, 68)" class="key keypos-4">
<rect rx="6" ry="6" x="-43" y="-43" width="86" height="86" class="key"/>
<text x="0" y="0" class="key tap">TODO</text>
</g>
<g transform="translate(765, 68)" class="key keypos-5">
<rect rx="6" ry="6" x="-43" y="-43" width="86" height="86" class="key"/>
<text x="0" y="0" class="key tap">+</text>
</g>
<g transform="translate(855, 56)" class="key keypos-6">
<rect rx="6" ry="6" x="-43" y="-43" width="86" height="86" class="key"/>
<text x="0" y="0" class="key tap">7</text>
</g>
<g transform="translate(945, 45)" class="key keypos-7">
<rect rx="6" ry="6" x="-43" y="-43" width="86" height="86" class="key"/>
<text x="0" y="0" class="key tap">8</text>
</g>
<g transform="translate(1035, 56)" class="key keypos-8">
<rect rx="6" ry="6" x="-43" y="-43" width="86" height="86" class="key"/>
<text x="0" y="0" class="key tap">9</text>
</g>
<g transform="translate(1125, 79)" class="key keypos-9">
<rect rx="6" ry="6" x="-43" y="-43" width="86" height="86" class="key"/>
<text x="0" y="0" class="key tap">*</text>
</g>
<g transform="translate(45, 169)" class="key keypos-10">
<rect rx="6" ry="6" x="-43" y="-43" width="86" height="86" class="key"/>
<text x="0" y="0" class="key tap">LGUI</text>
</g>
<g transform="translate(135, 146)" class="key keypos-11">
<rect rx="6" ry="6" x="-43" y="-43" width="86" height="86" class="key"/>
<text x="0" y="0" class="key tap">LALT</text>
</g>
<g transform="translate(225, 135)" class="key keypos-12">
<rect rx="6" ry="6" x="-43" y="-43" width="86" height="86" class="key"/>
<text x="0" y="0" class="key tap">LCTL</text>
</g>
<g transform="translate(315, 146)" class="key keypos-13">
<rect rx="6" ry="6" x="-43" y="-43" width="86" height="86" class="key"/>
<text x="0" y="0" class="key tap">LSFT</text>
</g>
<g transform="translate(405, 158)" class="key keypos-14">
<rect rx="6" ry="6" x="-43" y="-43" width="86" height="86" class="key"/>
</g>
<g transform="translate(765, 158)" class="key keypos-15">
<rect rx="6" ry="6" x="-43" y="-43" width="86" height="86" class="key"/>
<text x="0" y="0" class="key tap">=</text>
</g>
<g transform="translate(855, 146)" class="key keypos-16">
<rect rx="6" ry="6" x="-43" y="-43" width="86" height="86" class="key"/>
<text x="0" y="0" class="key tap">4</text>
</g>
<g transform="translate(945, 135)" class="key keypos-17">
<rect rx="6" ry="6" x="-43" y="-43" width="86" height="86" class="key"/>
<text x="0" y="0" class="key tap">5</text>
</g>
<g transform="translate(1035, 146)" class="key keypos-18">
<rect rx="6" ry="6" x="-43" y="-43" width="86" height="86" class="key"/>
<text x="0" y="0" class="key tap">6</text>
</g>
<g transform="translate(1125, 169)" class="key keypos-19">
<rect rx="6" ry="6" x="-43" y="-43" width="86" height="86" class="key"/>
<text x="0" y="0" class="key tap">:</text>
</g>
<g transform="translate(45, 259)" class="key keypos-20">
<rect rx="6" ry="6" x="-43" y="-43" width="86" height="86" class="key"/>
<text x="0" y="41" class="key hold">HYPR</text>
</g>
<g transform="translate(135, 236)" class="key keypos-21">
<rect rx="6" ry="6" x="-43" y="-43" width="86" height="86" class="key"/>
</g>
<g transform="translate(225, 225)" class="key keypos-22">
<rect rx="6" ry="6" x="-43" y="-43" width="86" height="86" class="key"/>
</g>
<g transform="translate(315, 236)" class="key keypos-23">
<rect rx="6" ry="6" x="-43" y="-43" width="86" height="86" class="key"/>
</g>
<g transform="translate(405, 248)" class="key keypos-24">
<rect rx="6" ry="6" x="-43" y="-43" width="86" height="86" class="key"/>
<text x="0" y="0" class="key tap">BCD-</text>
</g>
<g transform="translate(765, 248)" class="key keypos-25">
<rect rx="6" ry="6" x="-43" y="-43" width="86" height="86" class="key"/>
<text x="0" y="0" class="key tap">-</text>
</g>
<g transform="translate(855, 236)" class="key keypos-26">
<rect rx="6" ry="6" x="-43" y="-43" width="86" height="86" class="key"/>
<text x="0" y="0" class="key tap">1</text>
</g>
<g transform="translate(945, 225)" class="key keypos-27">
<rect rx="6" ry="6" x="-43" y="-43" width="86" height="86" class="key"/>
<text x="0" y="0" class="key tap">2</text>
</g>
<g transform="translate(1035, 236)" class="key keypos-28">
<rect rx="6" ry="6" x="-43" y="-43" width="86" height="86" class="key"/>
<text x="0" y="0" class="key tap">3</text>
</g>
<g transform="translate(1125, 259)" class="key keypos-29">
<rect rx="6" ry="6" x="-43" y="-43" width="86" height="86" class="key"/>
<text x="0" y="0" class="key tap">/</text>
</g>
<g transform="translate(270, 329)" class="key keypos-30">
<rect rx="6" ry="6" x="-43" y="-43" width="86" height="86" class="key"/>
</g>
<g transform="translate(369, 342) rotate(15.0)" class="key keypos-31">
<rect rx="6" ry="6" x="-43" y="-43" width="86" height="86" class="key"/>
</g>
<g transform="translate(474, 360) rotate(30.0)" class="key keypos-32">
<rect rx="6" ry="6" x="-43" y="-66" width="86" height="131" class="key"/>
</g>
<g transform="translate(696, 360) rotate(-30.0)" class="key keypos-33">
<rect rx="6" ry="6" x="-43" y="-66" width="86" height="131" class="key"/>
<text x="0" y="0" class="key tap">.</text>
</g>
<g transform="translate(801, 342) rotate(-15.0)" class="key keypos-34">
<rect rx="6" ry="6" x="-43" y="-43" width="86" height="86" class="key"/>
<text x="0" y="0" class="key tap">0</text>
</g>
<g transform="translate(900, 329)" class="key keypos-35">
<rect rx="6" ry="6" x="-43" y="-43" width="86" height="86" class="key"/>
<text x="0" y="0" class="key tap">,</text>
</g>
<g class="combo combopos-0">
<rect rx="6" ry="6" x="976" y="38" width="28" height="26" class="combo"/>
<text x="990" y="51" class="combo tap">BSPC</text>
</g>
<g class="combo combopos-1">
<rect rx="6" ry="6" x="886" y="218" width="28" height="26" class="combo"/>
<text x="900" y="231" class="combo tap">.</text>
</g>
<g class="combo combopos-2">
<rect rx="6" ry="6" x="976" y="218" width="28" height="26" class="combo"/>
<text x="990" y="231" class="combo tap">,</text>
</g>
</g>
</g>
<g transform="translate(30, 1990)" class="layer-LY_FUN">
<text x="0" y="28" class="label" id="LY_FUN">LY_FUN:</text>
<g transform="translate(0, 56)">
<g transform="translate(45, 79)" class="key keypos-0">
<rect rx="6" ry="6" x="-43" y="-43" width="86" height="86" class="key"/>
</g>
<g transform="translate(135, 56)" class="key keypos-1">
<rect rx="6" ry="6" x="-43" y="-43" width="86" height="86" class="key"/>
</g>
<g transform="translate(225, 45)" class="key keypos-2">
<rect rx="6" ry="6" x="-43" y="-43" width="86" height="86" class="key"/>
</g>
<g transform="translate(315, 56)" class="key keypos-3">
<rect rx="6" ry="6" x="-43" y="-43" width="86" height="86" class="key"/>
</g>
<g transform="translate(405, 68)" class="key keypos-4">
<rect rx="6" ry="6" x="-43" y="-43" width="86" height="86" class="key"/>
</g>
<g transform="translate(765, 68)" class="key keypos-5">
<rect rx="6" ry="6" x="-43" y="-43" width="86" height="86" class="key"/>
</g>
<g transform="translate(855, 56)" class="key keypos-6">
<rect rx="6" ry="6" x="-43" y="-43" width="86" height="86" class="key"/>
<text x="0" y="0" class="key tap">F9</text>
</g>
<g transform="translate(945, 45)" class="key keypos-7">
<rect rx="6" ry="6" x="-43" y="-43" width="86" height="86" class="key"/>
<text x="0" y="0" class="key tap">F10</text>
</g>
<g transform="translate(1035, 56)" class="key keypos-8">
<rect rx="6" ry="6" x="-43" y="-43" width="86" height="86" class="key"/>
<text x="0" y="0" class="key tap">F11</text>
</g>
<g transform="translate(1125, 79)" class="key keypos-9">
<rect rx="6" ry="6" x="-43" y="-43" width="86" height="86" class="key"/>
<text x="0" y="0" class="key tap">F12</text>
</g>
<g transform="translate(45, 169)" class="key keypos-10">
<rect rx="6" ry="6" x="-43" y="-43" width="86" height="86" class="key"/>
<text x="0" y="0" class="key tap">RGUI</text>
</g>
<g transform="translate(135, 146)" class="key keypos-11">
<rect rx="6" ry="6" x="-43" y="-43" width="86" height="86" class="key"/>
<text x="0" y="0" class="key tap">LALT</text>
</g>
<g transform="translate(225, 135)" class="key keypos-12">
<rect rx="6" ry="6" x="-43" y="-43" width="86" height="86" class="key"/>
<text x="0" y="0" class="key tap">RCTL</text>
</g>
<g transform="translate(315, 146)" class="key keypos-13">
<rect rx="6" ry="6" x="-43" y="-43" width="86" height="86" class="key"/>
<text x="0" y="0" class="key tap">RSFT</text>
</g>
<g transform="translate(405, 158)" class="key keypos-14">
<rect rx="6" ry="6" x="-43" y="-43" width="86" height="86" class="key"/>
</g>
<g transform="translate(765, 158)" class="key keypos-15">
<rect rx="6" ry="6" x="-43" y="-43" width="86" height="86" class="key"/>
</g>
<g transform="translate(855, 146)" class="key keypos-16">
<rect rx="6" ry="6" x="-43" y="-43" width="86" height="86" class="key"/>
<text x="0" y="0" class="key tap">F5</text>
</g>
<g transform="translate(945, 135)" class="key keypos-17">
<rect rx="6" ry="6" x="-43" y="-43" width="86" height="86" class="key"/>
<text x="0" y="0" class="key tap">F6</text>
</g>
<g transform="translate(1035, 146)" class="key keypos-18">
<rect rx="6" ry="6" x="-43" y="-43" width="86" height="86" class="key"/>
<text x="0" y="0" class="key tap">F7</text>
</g>
<g transform="translate(1125, 169)" class="key keypos-19">
<rect rx="6" ry="6" x="-43" y="-43" width="86" height="86" class="key"/>
<text x="0" y="0" class="key tap">F8</text>
</g>
<g transform="translate(45, 259)" class="key keypos-20">
<rect rx="6" ry="6" x="-43" y="-43" width="86" height="86" class="key"/>
</g>
<g transform="translate(135, 236)" class="key keypos-21">
<rect rx="6" ry="6" x="-43" y="-43" width="86" height="86" class="key"/>
</g>
<g transform="translate(225, 225)" class="key keypos-22">
<rect rx="6" ry="6" x="-43" y="-43" width="86" height="86" class="key"/>
</g>
<g transform="translate(315, 236)" class="key keypos-23">
<rect rx="6" ry="6" x="-43" y="-43" width="86" height="86" class="key"/>
</g>
<g transform="translate(405, 248)" class="key keypos-24">
<rect rx="6" ry="6" x="-43" y="-43" width="86" height="86" class="key"/>
</g>
<g transform="translate(765, 248)" class="key keypos-25">
<rect rx="6" ry="6" x="-43" y="-43" width="86" height="86" class="key"/>
</g>
<g transform="translate(855, 236)" class="key keypos-26">
<rect rx="6" ry="6" x="-43" y="-43" width="86" height="86" class="key"/>
<text x="0" y="0" class="key tap">F1</text>
</g>
<g transform="translate(945, 225)" class="key keypos-27">
<rect rx="6" ry="6" x="-43" y="-43" width="86" height="86" class="key"/>
<text x="0" y="0" class="key tap">F2</text>
</g>
<g transform="translate(1035, 236)" class="key keypos-28">
<rect rx="6" ry="6" x="-43" y="-43" width="86" height="86" class="key"/>
<text x="0" y="0" class="key tap">F3</text>
</g>
<g transform="translate(1125, 259)" class="key keypos-29">
<rect rx="6" ry="6" x="-43" y="-43" width="86" height="86" class="key"/>
<text x="0" y="0" class="key tap">F4</text>
</g>
<g transform="translate(270, 329)" class="key keypos-30">
<rect rx="6" ry="6" x="-43" y="-43" width="86" height="86" class="key"/>
</g>
<g transform="translate(369, 342) rotate(15.0)" class="key keypos-31">
<rect rx="6" ry="6" x="-43" y="-43" width="86" height="86" class="key"/>
</g>
<g transform="translate(474, 360) rotate(30.0)" class="key keypos-32">
<rect rx="6" ry="6" x="-43" y="-66" width="86" height="131" class="key"/>
</g>
<g transform="translate(696, 360) rotate(-30.0)" class="key keypos-33">
<rect rx="6" ry="6" x="-43" y="-66" width="86" height="131" class="key"/>
</g>
<g transform="translate(801, 342) rotate(-15.0)" class="key keypos-34">
<rect rx="6" ry="6" x="-43" y="-43" width="86" height="86" class="key"/>
</g>
<g transform="translate(900, 329)" class="key keypos-35">
<rect rx="6" ry="6" x="-43" y="-43" width="86" height="86" class="key"/>
</g>
</g>
</g>
<g transform="translate(30, 2487)" class="layer-LY_MED">
<text x="0" y="28" class="label" id="LY_MED">LY_MED:</text>
<g transform="translate(0, 56)">
<g transform="translate(45, 79)" class="key keypos-0">
<rect rx="6" ry="6" x="-43" y="-43" width="86" height="86" class="key"/>
<text x="0" y="0" class="key tap">G(C(Q))</text>
</g>
<g transform="translate(135, 56)" class="key keypos-1">
<rect rx="6" ry="6" x="-43" y="-43" width="86" height="86" class="key"/>
<text x="0" y="0" class="key tap">VOLD</text>
</g>
<g transform="translate(225, 45)" class="key keypos-2">
<rect rx="6" ry="6" x="-43" y="-43" width="86" height="86" class="key"/>
<text x="0" y="0" class="key tap">MUTE</text>
</g>
<g transform="translate(315, 56)" class="key keypos-3">
<rect rx="6" ry="6" x="-43" y="-43" width="86" height="86" class="key"/>
<text x="0" y="0" class="key tap">VOLU</text>
</g>
<g transform="translate(405, 68)" class="key keypos-4">
<rect rx="6" ry="6" x="-43" y="-43" width="86" height="86" class="key"/>
</g>
<g transform="translate(765, 68)" class="key keypos-5">
<rect rx="6" ry="6" x="-43" y="-43" width="86" height="86" class="key"/>
</g>
<g transform="translate(855, 56)" class="key keypos-6">
<rect rx="6" ry="6" x="-43" y="-43" width="86" height="86" class="key"/>
<text x="0" y="0" class="key tap">RGB_HUD</text>
</g>
<g transform="translate(945, 45)" class="key keypos-7">
<rect rx="6" ry="6" x="-43" y="-43" width="86" height="86" class="key"/>
<text x="0" y="0" class="key tap">RGB_TOG</text>
</g>
<g transform="translate(1035, 56)" class="key keypos-8">
<rect rx="6" ry="6" x="-43" y="-43" width="86" height="86" class="key"/>
<text x="0" y="0" class="key tap">RGB_HUI</text>
</g>
<g transform="translate(1125, 79)" class="key keypos-9">
<rect rx="6" ry="6" x="-43" y="-43" width="86" height="86" class="key"/>
</g>
<g transform="translate(45, 169)" class="key keypos-10">
<rect rx="6" ry="6" x="-43" y="-43" width="86" height="86" class="key"/>
</g>
<g transform="translate(135, 146)" class="key keypos-11">
<rect rx="6" ry="6" x="-43" y="-43" width="86" height="86" class="key"/>
<text x="0" y="0" class="key tap">MPRV</text>
</g>
<g transform="translate(225, 135)" class="key keypos-12">
<rect rx="6" ry="6" x="-43" y="-43" width="86" height="86" class="key"/>
<text x="0" y="0" class="key tap">MPLY</text>
</g>
<g transform="translate(315, 146)" class="key keypos-13">
<rect rx="6" ry="6" x="-43" y="-43" width="86" height="86" class="key"/>
<text x="0" y="0" class="key tap">MNXT</text>
</g>
<g transform="translate(405, 158)" class="key keypos-14">
<rect rx="6" ry="6" x="-43" y="-43" width="86" height="86" class="key"/>
<text x="0" y="41" class="key hold">MEH</text>
</g>
<g transform="translate(765, 158)" class="key keypos-15">
<rect rx="6" ry="6" x="-43" y="-43" width="86" height="86" class="key"/>
</g>
<g transform="translate(855, 146)" class="key keypos-16">
<rect rx="6" ry="6" x="-43" y="-43" width="86" height="86" class="key"/>
<text x="0" y="0" class="key tap">G(-)</text>
</g>
<g transform="translate(945, 135)" class="key keypos-17">
<rect rx="6" ry="6" x="-43" y="-43" width="86" height="86" class="key"/>
<text x="0" y="0" class="key tap">G(0)</text>
</g>
<g transform="translate(1035, 146)" class="key keypos-18">
<rect rx="6" ry="6" x="-43" y="-43" width="86" height="86" class="key"/>
<text x="0" y="0" class="key tap">G(=)</text>
</g>
<g transform="translate(1125, 169)" class="key keypos-19">
<rect rx="6" ry="6" x="-43" y="-43" width="86" height="86" class="key"/>
</g>
<g transform="translate(45, 259)" class="key keypos-20">
<rect rx="6" ry="6" x="-43" y="-43" width="86" height="86" class="key"/>
</g>
<g transform="translate(135, 236)" class="key keypos-21">
<rect rx="6" ry="6" x="-43" y="-43" width="86" height="86" class="key"/>
</g>
<g transform="translate(225, 225)" class="key keypos-22">
<rect rx="6" ry="6" x="-43" y="-43" width="86" height="86" class="key"/>
</g>
<g transform="translate(315, 236)" class="key keypos-23">
<rect rx="6" ry="6" x="-43" y="-43" width="86" height="86" class="key"/>
</g>
<g transform="translate(405, 248)" class="key keypos-24">
<rect rx="6" ry="6" x="-43" y="-43" width="86" height="86" class="key"/>
</g>
<g transform="translate(765, 248)" class="key keypos-25">
<rect rx="6" ry="6" x="-43" y="-43" width="86" height="86" class="key"/>
</g>
<g transform="translate(855, 236)" class="key keypos-26">
<rect rx="6" ry="6" x="-43" y="-43" width="86" height="86" class="key"/>
<text x="0" y="0" class="key tap">DT_DOWN</text>
</g>
<g transform="translate(945, 225)" class="key keypos-27">
<rect rx="6" ry="6" x="-43" y="-43" width="86" height="86" class="key"/>
<text x="0" y="0" class="key tap">DT_PRNT</text>
</g>
<g transform="translate(1035, 236)" class="key keypos-28">
<rect rx="6" ry="6" x="-43" y="-43" width="86" height="86" class="key"/>
<text x="0" y="0" class="key tap">DT_UP</text>
</g>
<g transform="translate(1125, 259)" class="key keypos-29">
<rect rx="6" ry="6" x="-43" y="-43" width="86" height="86" class="key"/>
</g>
<g transform="translate(270, 329)" class="key keypos-30">
<rect rx="6" ry="6" x="-43" y="-43" width="86" height="86" class="key"/>
</g>
<g transform="translate(369, 342) rotate(15.0)" class="key keypos-31">
<rect rx="6" ry="6" x="-43" y="-43" width="86" height="86" class="key"/>
</g>
<g transform="translate(474, 360) rotate(30.0)" class="key keypos-32">
<rect rx="6" ry="6" x="-43" y="-66" width="86" height="131" class="key"/>
</g>
<g transform="translate(696, 360) rotate(-30.0)" class="key keypos-33">
<rect rx="6" ry="6" x="-43" y="-66" width="86" height="131" class="key"/>
</g>
<g transform="translate(801, 342) rotate(-15.0)" class="key keypos-34">
<rect rx="6" ry="6" x="-43" y="-43" width="86" height="86" class="key"/>
</g>
<g transform="translate(900, 329)" class="key keypos-35">
<rect rx="6" ry="6" x="-43" y="-43" width="86" height="86" class="key"/>
</g>
</g>
</g>
</svg>
